<mxfile host="65bd71144e">
    <diagram id="v_vUgk92OQUKSvXAz8in" name="第 1 页">
        <mxGraphModel dx="2800" dy="1723" grid="1" gridSize="10" guides="1" tooltips="1" connect="1" arrows="1" fold="1" page="0" pageScale="1" pageWidth="827" pageHeight="1169" math="0" shadow="0">
            <root>
                <mxCell id="0"/>
                <mxCell id="1" parent="0"/>
                <mxCell id="11" value="" style="rounded=0;whiteSpace=wrap;html=1;" parent="1" vertex="1">
                    <mxGeometry x="-740" y="120" width="750" height="560" as="geometry"/>
                </mxCell>
                <mxCell id="12" value="&lt;font style=&quot;font-size: 18px;&quot;&gt;NavBar.vue&lt;/font&gt;" style="rounded=0;whiteSpace=wrap;html=1;" parent="1" vertex="1">
                    <mxGeometry x="-730" y="130" width="730" height="80" as="geometry"/>
                </mxCell>
                <mxCell id="14" value="&lt;span style=&quot;font-size: 18px;&quot;&gt;footer:copyright&lt;/span&gt;" style="rounded=0;whiteSpace=wrap;html=1;" parent="1" vertex="1">
                    <mxGeometry x="-730" y="560" width="730" height="110" as="geometry"/>
                </mxCell>
                <mxCell id="15" value="&lt;font style=&quot;font-size: 48px;&quot;&gt;/ | start.vue&amp;nbsp; &amp;nbsp;首页&lt;/font&gt;" style="text;html=1;strokeColor=none;fillColor=none;align=center;verticalAlign=middle;whiteSpace=wrap;rounded=0;" parent="1" vertex="1">
                    <mxGeometry x="-577.5" y="70" width="425" height="30" as="geometry"/>
                </mxCell>
                <mxCell id="16" value="" style="rounded=0;whiteSpace=wrap;html=1;fontSize=18;" parent="1" vertex="1">
                    <mxGeometry x="80" y="120" width="720" height="560" as="geometry"/>
                </mxCell>
                <mxCell id="17" value="UserNavBar.vue" style="rounded=0;whiteSpace=wrap;html=1;fontSize=18;" parent="1" vertex="1">
                    <mxGeometry x="90" y="130" width="700" height="80" as="geometry"/>
                </mxCell>
                <mxCell id="18" value="&lt;font style=&quot;font-size: 18px;&quot;&gt;UserNavTable.vue&lt;/font&gt;" style="rounded=0;whiteSpace=wrap;html=1;" parent="1" vertex="1">
                    <mxGeometry x="90" y="220" width="170" height="450" as="geometry"/>
                </mxCell>
                <mxCell id="20" value="&lt;font style=&quot;font-size: 48px;&quot;&gt;/user | user.vue&amp;nbsp; &amp;nbsp;用户界面容器&lt;/font&gt;" style="text;html=1;strokeColor=none;fillColor=none;align=center;verticalAlign=middle;whiteSpace=wrap;rounded=0;" parent="1" vertex="1">
                    <mxGeometry x="140" y="70" width="660" height="30" as="geometry"/>
                </mxCell>
                <mxCell id="35" value="" style="edgeStyle=none;html=1;fontSize=18;" parent="1" source="21" target="34" edge="1">
                    <mxGeometry relative="1" as="geometry"/>
                </mxCell>
                <mxCell id="38" value="" style="edgeStyle=none;html=1;fontSize=36;" parent="1" source="21" target="37" edge="1">
                    <mxGeometry relative="1" as="geometry"/>
                </mxCell>
                <mxCell id="43" value="" style="edgeStyle=none;html=1;fontSize=36;" parent="1" source="21" target="42" edge="1">
                    <mxGeometry relative="1" as="geometry"/>
                </mxCell>
                <mxCell id="45" value="" style="edgeStyle=none;html=1;fontSize=36;" parent="1" source="21" target="44" edge="1">
                    <mxGeometry relative="1" as="geometry"/>
                </mxCell>
                <mxCell id="21" value="router-view" style="rounded=0;whiteSpace=wrap;html=1;fontSize=18;" parent="1" vertex="1">
                    <mxGeometry x="270" y="220" width="520" height="450" as="geometry"/>
                </mxCell>
                <mxCell id="22" value="" style="rounded=0;whiteSpace=wrap;html=1;fontSize=18;" parent="1" vertex="1">
                    <mxGeometry x="80" y="1020" width="720" height="560" as="geometry"/>
                </mxCell>
                <mxCell id="23" value="AdminNavBar.vue" style="rounded=0;whiteSpace=wrap;html=1;fontSize=18;" parent="1" vertex="1">
                    <mxGeometry x="90" y="1030" width="700" height="80" as="geometry"/>
                </mxCell>
                <mxCell id="24" value="&lt;font style=&quot;font-size: 18px;&quot;&gt;AdminNavTable.vue&lt;/font&gt;" style="rounded=0;whiteSpace=wrap;html=1;" parent="1" vertex="1">
                    <mxGeometry x="90" y="1120" width="170" height="450" as="geometry"/>
                </mxCell>
                <mxCell id="25" value="&lt;font style=&quot;font-size: 48px;&quot;&gt;/admin | admin.vue&amp;nbsp; &amp;nbsp;管理员界面容器&lt;/font&gt;" style="text;html=1;strokeColor=none;fillColor=none;align=center;verticalAlign=middle;whiteSpace=wrap;rounded=0;" parent="1" vertex="1">
                    <mxGeometry x="5" y="930" width="850" height="30" as="geometry"/>
                </mxCell>
                <mxCell id="50" value="" style="edgeStyle=none;html=1;fontSize=36;" parent="1" source="26" target="49" edge="1">
                    <mxGeometry relative="1" as="geometry"/>
                </mxCell>
                <mxCell id="53" value="" style="edgeStyle=none;html=1;" parent="1" source="26" target="52" edge="1">
                    <mxGeometry relative="1" as="geometry"/>
                </mxCell>
                <mxCell id="56" value="" style="edgeStyle=none;html=1;" parent="1" source="26" target="55" edge="1">
                    <mxGeometry relative="1" as="geometry"/>
                </mxCell>
                <mxCell id="61" value="" style="edgeStyle=none;html=1;" parent="1" source="26" target="60" edge="1">
                    <mxGeometry relative="1" as="geometry"/>
                </mxCell>
                <mxCell id="64" value="" style="edgeStyle=none;html=1;" parent="1" source="26" target="63" edge="1">
                    <mxGeometry relative="1" as="geometry"/>
                </mxCell>
                <mxCell id="26" value="router-view" style="rounded=0;whiteSpace=wrap;html=1;fontSize=18;" parent="1" vertex="1">
                    <mxGeometry x="270" y="1120" width="520" height="450" as="geometry"/>
                </mxCell>
                <mxCell id="34" value="Account.vue" style="whiteSpace=wrap;html=1;fontSize=18;rounded=0;" parent="1" vertex="1">
                    <mxGeometry x="1240" y="-30" width="400" height="60" as="geometry"/>
                </mxCell>
                <mxCell id="36" value="&lt;font style=&quot;font-size: 36px;&quot;&gt;/account&lt;/font&gt;" style="text;html=1;strokeColor=none;fillColor=none;align=center;verticalAlign=middle;whiteSpace=wrap;rounded=0;fontSize=18;" parent="1" vertex="1">
                    <mxGeometry x="1350" y="-100" width="190" height="50" as="geometry"/>
                </mxCell>
                <mxCell id="37" value="Diary.vue" style="whiteSpace=wrap;html=1;fontSize=18;rounded=0;" parent="1" vertex="1">
                    <mxGeometry x="1240" y="170" width="400" height="60" as="geometry"/>
                </mxCell>
                <mxCell id="39" value="&lt;font style=&quot;font-size: 36px;&quot;&gt;/diary&lt;/font&gt;" style="text;html=1;strokeColor=none;fillColor=none;align=center;verticalAlign=middle;whiteSpace=wrap;rounded=0;fontSize=18;" parent="1" vertex="1">
                    <mxGeometry x="1350" y="100" width="190" height="50" as="geometry"/>
                </mxCell>
                <mxCell id="42" value="Match.vue" style="whiteSpace=wrap;html=1;fontSize=18;rounded=0;" parent="1" vertex="1">
                    <mxGeometry x="1240" y="370" width="400" height="60" as="geometry"/>
                </mxCell>
                <mxCell id="44" value="SecretSpot.vue" style="whiteSpace=wrap;html=1;fontSize=18;rounded=0;" parent="1" vertex="1">
                    <mxGeometry x="1240" y="610" width="400" height="60" as="geometry"/>
                </mxCell>
                <mxCell id="47" value="&lt;font style=&quot;font-size: 36px;&quot;&gt;/match&lt;/font&gt;" style="text;html=1;strokeColor=none;fillColor=none;align=center;verticalAlign=middle;whiteSpace=wrap;rounded=0;fontSize=18;" parent="1" vertex="1">
                    <mxGeometry x="1335" y="310" width="190" height="50" as="geometry"/>
                </mxCell>
                <mxCell id="48" value="&lt;span style=&quot;font-size: 36px;&quot;&gt;/secretspot&lt;/span&gt;" style="text;html=1;strokeColor=none;fillColor=none;align=center;verticalAlign=middle;whiteSpace=wrap;rounded=0;fontSize=18;" parent="1" vertex="1">
                    <mxGeometry x="1335" y="550" width="190" height="50" as="geometry"/>
                </mxCell>
                <mxCell id="49" value="account.vue" style="whiteSpace=wrap;html=1;fontSize=18;rounded=0;" parent="1" vertex="1">
                    <mxGeometry x="1240" y="1000" width="400" height="60" as="geometry"/>
                </mxCell>
                <mxCell id="51" value="&lt;span style=&quot;font-size: 36px;&quot;&gt;/account&lt;/span&gt;" style="text;html=1;strokeColor=none;fillColor=none;align=center;verticalAlign=middle;whiteSpace=wrap;rounded=0;fontSize=18;" parent="1" vertex="1">
                    <mxGeometry x="1345" y="930" width="190" height="50" as="geometry"/>
                </mxCell>
                <mxCell id="52" value="accountmanage.vue" style="whiteSpace=wrap;html=1;fontSize=18;rounded=0;" parent="1" vertex="1">
                    <mxGeometry x="1240" y="1140" width="400" height="60" as="geometry"/>
                </mxCell>
                <mxCell id="54" value="&lt;span style=&quot;font-size: 36px;&quot;&gt;/accountmanage&lt;/span&gt;" style="text;html=1;strokeColor=none;fillColor=none;align=center;verticalAlign=middle;whiteSpace=wrap;rounded=0;fontSize=18;" parent="1" vertex="1">
                    <mxGeometry x="1350" y="1080" width="190" height="50" as="geometry"/>
                </mxCell>
                <mxCell id="55" value="feedbackhandle.vue" style="whiteSpace=wrap;html=1;fontSize=18;rounded=0;" parent="1" vertex="1">
                    <mxGeometry x="1245" y="1540" width="400" height="60" as="geometry"/>
                </mxCell>
                <mxCell id="58" value="&lt;span style=&quot;font-size: 36px;&quot;&gt;/feedbackhandle&lt;/span&gt;" style="text;html=1;strokeColor=none;fillColor=none;align=center;verticalAlign=middle;whiteSpace=wrap;rounded=0;fontSize=18;" parent="1" vertex="1">
                    <mxGeometry x="1292.5" y="1480" width="305" height="50" as="geometry"/>
                </mxCell>
                <mxCell id="60" value="contentfilter.vue" style="whiteSpace=wrap;html=1;fontSize=18;rounded=0;" parent="1" vertex="1">
                    <mxGeometry x="1245" y="1400" width="400" height="60" as="geometry"/>
                </mxCell>
                <mxCell id="62" value="&lt;span style=&quot;font-size: 36px;&quot;&gt;/contentfilter&lt;/span&gt;" style="text;html=1;strokeColor=none;fillColor=none;align=center;verticalAlign=middle;whiteSpace=wrap;rounded=0;fontSize=18;" parent="1" vertex="1">
                    <mxGeometry x="1312.5" y="1340" width="245" height="50" as="geometry"/>
                </mxCell>
                <mxCell id="63" value="syslog.vue" style="whiteSpace=wrap;html=1;fontSize=18;rounded=0;" parent="1" vertex="1">
                    <mxGeometry x="1245" y="1280" width="400" height="60" as="geometry"/>
                </mxCell>
                <mxCell id="65" value="&lt;span style=&quot;font-size: 36px;&quot;&gt;/syslog&lt;/span&gt;" style="text;html=1;strokeColor=none;fillColor=none;align=center;verticalAlign=middle;whiteSpace=wrap;rounded=0;fontSize=18;" parent="1" vertex="1">
                    <mxGeometry x="1322.5" y="1220" width="245" height="50" as="geometry"/>
                </mxCell>
                <mxCell id="67" value="" style="edgeStyle=none;html=1;" parent="1" source="68" target="72" edge="1">
                    <mxGeometry relative="1" as="geometry"/>
                </mxCell>
                <mxCell id="68" value="App" style="rounded=1;whiteSpace=wrap;html=1;" parent="1" vertex="1">
                    <mxGeometry x="810" y="-680" width="120" height="60" as="geometry"/>
                </mxCell>
                <mxCell id="77" value="" style="edgeStyle=none;html=1;" parent="1" source="72" target="76" edge="1">
                    <mxGeometry relative="1" as="geometry"/>
                </mxCell>
                <mxCell id="72" value="root" style="whiteSpace=wrap;html=1;rounded=1;" parent="1" vertex="1">
                    <mxGeometry x="810" y="-540" width="120" height="60" as="geometry"/>
                </mxCell>
                <mxCell id="79" value="" style="edgeStyle=none;html=1;" parent="1" source="76" target="78" edge="1">
                    <mxGeometry relative="1" as="geometry"/>
                </mxCell>
                <mxCell id="81" value="" style="edgeStyle=none;html=1;" parent="1" source="76" target="80" edge="1">
                    <mxGeometry relative="1" as="geometry"/>
                </mxCell>
                <mxCell id="83" value="" style="edgeStyle=none;html=1;" parent="1" source="76" target="82" edge="1">
                    <mxGeometry relative="1" as="geometry"/>
                </mxCell>
                <mxCell id="76" value="user container" style="whiteSpace=wrap;html=1;rounded=1;" parent="1" vertex="1">
                    <mxGeometry x="810" y="-400" width="120" height="60" as="geometry"/>
                </mxCell>
                <mxCell id="78" value="user nav bar" style="whiteSpace=wrap;html=1;rounded=1;" parent="1" vertex="1">
                    <mxGeometry x="620" y="-290" width="120" height="60" as="geometry"/>
                </mxCell>
                <mxCell id="80" value="user nav table" style="whiteSpace=wrap;html=1;rounded=1;" parent="1" vertex="1">
                    <mxGeometry x="810" y="-290" width="120" height="60" as="geometry"/>
                </mxCell>
                <mxCell id="82" value="main router view" style="whiteSpace=wrap;html=1;rounded=1;" parent="1" vertex="1">
                    <mxGeometry x="1030" y="-290" width="120" height="60" as="geometry"/>
                </mxCell>
                <mxCell id="84" value="router-view" style="text;html=1;strokeColor=none;fillColor=none;align=center;verticalAlign=middle;whiteSpace=wrap;rounded=0;" parent="1" vertex="1">
                    <mxGeometry x="850" y="-460" width="120" height="30" as="geometry"/>
                </mxCell>
            </root>
        </mxGraphModel>
    </diagram>
</mxfile>